<mxfile host="app.diagrams.net" modified="2021-05-19T06:25:03.264Z" agent="5.0 (Macintosh; Intel Mac OS X 10_15_7) AppleWebKit/537.36 (KHTML, like Gecko) Chrome/90.0.4430.212 Safari/537.36" etag="0kSm3XjDDN6dG6Uii_P2" version="14.6.10" type="github">
  <diagram id="KCBV3hlvJQdjvj2Q_8EK" name="第 1 页">
    <mxGraphModel dx="951" dy="641" grid="1" gridSize="10" guides="1" tooltips="1" connect="1" arrows="1" fold="1" page="1" pageScale="1" pageWidth="827" pageHeight="1169" math="0" shadow="0">
      <root>
        <mxCell id="0" />
        <mxCell id="1" parent="0" />
        <mxCell id="B9y7Y_qLmK_6oBP0jbWP-55" value="" style="group" vertex="1" connectable="0" parent="1">
          <mxGeometry x="70" y="57" width="660" height="198" as="geometry" />
        </mxCell>
        <mxCell id="B9y7Y_qLmK_6oBP0jbWP-12" style="edgeStyle=orthogonalEdgeStyle;rounded=0;orthogonalLoop=1;jettySize=auto;html=1;entryX=0;entryY=0.5;entryDx=0;entryDy=0;strokeColor=#B46504;" edge="1" parent="B9y7Y_qLmK_6oBP0jbWP-55" target="B9y7Y_qLmK_6oBP0jbWP-10">
          <mxGeometry relative="1" as="geometry">
            <mxPoint x="60" y="90" as="sourcePoint" />
            <Array as="points">
              <mxPoint x="60" y="90" />
              <mxPoint x="60" y="135" />
            </Array>
          </mxGeometry>
        </mxCell>
        <mxCell id="B9y7Y_qLmK_6oBP0jbWP-1" value="家长1" style="shape=umlActor;verticalLabelPosition=bottom;verticalAlign=top;html=1;fillColor=#dae8fc;strokeColor=#6c8ebf;" vertex="1" parent="B9y7Y_qLmK_6oBP0jbWP-55">
          <mxGeometry y="70" width="30" height="60" as="geometry" />
        </mxCell>
        <mxCell id="B9y7Y_qLmK_6oBP0jbWP-5" value="ID1" style="html=1;fillColor=#dae8fc;strokeColor=#6c8ebf;" vertex="1" parent="B9y7Y_qLmK_6oBP0jbWP-55">
          <mxGeometry x="140" y="30" width="80" height="30" as="geometry" />
        </mxCell>
        <mxCell id="B9y7Y_qLmK_6oBP0jbWP-4" value="创建" style="edgeStyle=orthogonalEdgeStyle;rounded=0;orthogonalLoop=1;jettySize=auto;html=1;exitX=1;exitY=0.3333333333333333;exitDx=0;exitDy=0;exitPerimeter=0;strokeColor=#6C8EBF;fontColor=#6C8EBF;" edge="1" parent="B9y7Y_qLmK_6oBP0jbWP-55" source="B9y7Y_qLmK_6oBP0jbWP-1" target="B9y7Y_qLmK_6oBP0jbWP-5">
          <mxGeometry x="0.5556" relative="1" as="geometry">
            <mxPoint x="90" y="80" as="targetPoint" />
            <Array as="points">
              <mxPoint x="60" y="90" />
              <mxPoint x="60" y="45" />
            </Array>
            <mxPoint as="offset" />
          </mxGeometry>
        </mxCell>
        <mxCell id="B9y7Y_qLmK_6oBP0jbWP-6" value="ID2" style="html=1;fillColor=#dae8fc;strokeColor=#6c8ebf;" vertex="1" parent="B9y7Y_qLmK_6oBP0jbWP-55">
          <mxGeometry x="140" y="75" width="80" height="30" as="geometry" />
        </mxCell>
        <mxCell id="B9y7Y_qLmK_6oBP0jbWP-9" style="edgeStyle=orthogonalEdgeStyle;rounded=0;orthogonalLoop=1;jettySize=auto;html=1;exitX=1;exitY=0.3333333333333333;exitDx=0;exitDy=0;exitPerimeter=0;entryX=0;entryY=0.5;entryDx=0;entryDy=0;strokeColor=#6C8EBF;" edge="1" parent="B9y7Y_qLmK_6oBP0jbWP-55" source="B9y7Y_qLmK_6oBP0jbWP-1" target="B9y7Y_qLmK_6oBP0jbWP-6">
          <mxGeometry relative="1" as="geometry">
            <Array as="points">
              <mxPoint x="50" y="90" />
              <mxPoint x="50" y="90" />
            </Array>
          </mxGeometry>
        </mxCell>
        <mxCell id="B9y7Y_qLmK_6oBP0jbWP-46" value="创建" style="edgeLabel;html=1;align=center;verticalAlign=middle;resizable=0;points=[];fontColor=#6C8EBF;" vertex="1" connectable="0" parent="B9y7Y_qLmK_6oBP0jbWP-9">
          <mxGeometry x="0.3873" y="1" relative="1" as="geometry">
            <mxPoint x="-4" y="1" as="offset" />
          </mxGeometry>
        </mxCell>
        <mxCell id="B9y7Y_qLmK_6oBP0jbWP-10" value="ID3" style="html=1;fillColor=#fad7ac;strokeColor=#b46504;fontColor=#CC6600;" vertex="1" parent="B9y7Y_qLmK_6oBP0jbWP-55">
          <mxGeometry x="140" y="120" width="80" height="30" as="geometry" />
        </mxCell>
        <mxCell id="B9y7Y_qLmK_6oBP0jbWP-117" style="edgeStyle=orthogonalEdgeStyle;rounded=0;orthogonalLoop=1;jettySize=auto;html=1;exitX=1;exitY=0.5;exitDx=0;exitDy=0;entryX=0;entryY=0.114;entryDx=0;entryDy=0;entryPerimeter=0;fontSize=8;fontColor=#3A5431;strokeColor=#56517E;" edge="1" parent="B9y7Y_qLmK_6oBP0jbWP-55" source="B9y7Y_qLmK_6oBP0jbWP-13" target="B9y7Y_qLmK_6oBP0jbWP-115">
          <mxGeometry relative="1" as="geometry" />
        </mxCell>
        <mxCell id="B9y7Y_qLmK_6oBP0jbWP-13" value="Device1" style="html=1;fillColor=#d0cee2;strokeColor=#56517e;fontColor=#330066;" vertex="1" parent="B9y7Y_qLmK_6oBP0jbWP-55">
          <mxGeometry x="380" y="3" width="80" height="24" as="geometry" />
        </mxCell>
        <mxCell id="B9y7Y_qLmK_6oBP0jbWP-19" style="edgeStyle=orthogonalEdgeStyle;rounded=0;orthogonalLoop=1;jettySize=auto;html=1;exitX=1;exitY=0.5;exitDx=0;exitDy=0;entryX=0;entryY=0.5;entryDx=0;entryDy=0;fontColor=#330066;strokeColor=#56517E;" edge="1" parent="B9y7Y_qLmK_6oBP0jbWP-55" source="B9y7Y_qLmK_6oBP0jbWP-5" target="B9y7Y_qLmK_6oBP0jbWP-13">
          <mxGeometry relative="1" as="geometry">
            <Array as="points">
              <mxPoint x="280" y="45" />
              <mxPoint x="280" y="15" />
            </Array>
          </mxGeometry>
        </mxCell>
        <mxCell id="B9y7Y_qLmK_6oBP0jbWP-50" value="绑定" style="edgeLabel;html=1;align=center;verticalAlign=middle;resizable=0;points=[];fontColor=#6C8EBF;" vertex="1" connectable="0" parent="B9y7Y_qLmK_6oBP0jbWP-19">
          <mxGeometry x="0.4111" y="-2" relative="1" as="geometry">
            <mxPoint x="-44" y="16" as="offset" />
          </mxGeometry>
        </mxCell>
        <mxCell id="B9y7Y_qLmK_6oBP0jbWP-15" value="Device2" style="html=1;fillColor=#d0cee2;strokeColor=#56517e;fontColor=#330066;" vertex="1" parent="B9y7Y_qLmK_6oBP0jbWP-55">
          <mxGeometry x="380" y="33" width="80" height="24" as="geometry" />
        </mxCell>
        <mxCell id="B9y7Y_qLmK_6oBP0jbWP-14" value="" style="edgeStyle=orthogonalEdgeStyle;rounded=0;orthogonalLoop=1;jettySize=auto;html=1;entryX=0;entryY=0.5;entryDx=0;entryDy=0;strokeColor=#56517E;" edge="1" parent="B9y7Y_qLmK_6oBP0jbWP-55" source="B9y7Y_qLmK_6oBP0jbWP-5" target="B9y7Y_qLmK_6oBP0jbWP-15">
          <mxGeometry relative="1" as="geometry">
            <Array as="points">
              <mxPoint x="310" y="45" />
              <mxPoint x="310" y="45" />
            </Array>
          </mxGeometry>
        </mxCell>
        <mxCell id="B9y7Y_qLmK_6oBP0jbWP-52" value="" style="edgeLabel;html=1;align=center;verticalAlign=middle;resizable=0;points=[];fontColor=#6C8EBF;" vertex="1" connectable="0" parent="B9y7Y_qLmK_6oBP0jbWP-14">
          <mxGeometry x="0.3021" y="-1" relative="1" as="geometry">
            <mxPoint x="6" as="offset" />
          </mxGeometry>
        </mxCell>
        <mxCell id="B9y7Y_qLmK_6oBP0jbWP-17" value="Device3" style="html=1;fillColor=#d0cee2;strokeColor=#56517e;fontColor=#330066;" vertex="1" parent="B9y7Y_qLmK_6oBP0jbWP-55">
          <mxGeometry x="380" y="78" width="80" height="24" as="geometry" />
        </mxCell>
        <mxCell id="B9y7Y_qLmK_6oBP0jbWP-49" style="edgeStyle=orthogonalEdgeStyle;rounded=0;orthogonalLoop=1;jettySize=auto;html=1;exitX=1;exitY=0.5;exitDx=0;exitDy=0;entryX=0;entryY=0.5;entryDx=0;entryDy=0;fontColor=#6C8EBF;strokeColor=#56517E;" edge="1" parent="B9y7Y_qLmK_6oBP0jbWP-55" source="B9y7Y_qLmK_6oBP0jbWP-6" target="B9y7Y_qLmK_6oBP0jbWP-17">
          <mxGeometry relative="1" as="geometry" />
        </mxCell>
        <mxCell id="B9y7Y_qLmK_6oBP0jbWP-22" value="Device4" style="html=1;fillColor=#ffe6cc;strokeColor=#d79b00;fontColor=#B46504;" vertex="1" parent="B9y7Y_qLmK_6oBP0jbWP-55">
          <mxGeometry x="380" y="123" width="80" height="24" as="geometry" />
        </mxCell>
        <mxCell id="B9y7Y_qLmK_6oBP0jbWP-23" style="edgeStyle=orthogonalEdgeStyle;rounded=0;orthogonalLoop=1;jettySize=auto;html=1;exitX=1;exitY=0.5;exitDx=0;exitDy=0;fontColor=#CC6600;strokeColor=#B46504;" edge="1" parent="B9y7Y_qLmK_6oBP0jbWP-55" source="B9y7Y_qLmK_6oBP0jbWP-10" target="B9y7Y_qLmK_6oBP0jbWP-22">
          <mxGeometry relative="1" as="geometry" />
        </mxCell>
        <mxCell id="B9y7Y_qLmK_6oBP0jbWP-115" value="家长列表" style="swimlane;rounded=0;glass=0;sketch=0;fontSize=8;fontColor=#ffffff;strokeColor=#432D57;align=center;html=1;fillColor=#76608a;" vertex="1" parent="B9y7Y_qLmK_6oBP0jbWP-55">
          <mxGeometry x="510" y="3" width="130" height="105" as="geometry">
            <mxRectangle x="580" y="323" width="80" height="23" as="alternateBounds" />
          </mxGeometry>
        </mxCell>
        <mxCell id="B9y7Y_qLmK_6oBP0jbWP-116" value="管理员：&lt;br&gt;家长1&lt;br&gt;普通成员：&lt;br&gt;家长2、家长3" style="text;html=1;align=left;verticalAlign=middle;resizable=0;points=[];autosize=1;strokeColor=none;fontSize=8;fontColor=#56517E;" vertex="1" parent="B9y7Y_qLmK_6oBP0jbWP-115">
          <mxGeometry x="10" y="35" width="90" height="50" as="geometry" />
        </mxCell>
        <mxCell id="B9y7Y_qLmK_6oBP0jbWP-81" value="创建" style="edgeStyle=orthogonalEdgeStyle;rounded=0;orthogonalLoop=1;jettySize=auto;html=1;entryX=0;entryY=0.5;entryDx=0;entryDy=0;exitX=1;exitY=0.3333333333333333;exitDx=0;exitDy=0;exitPerimeter=0;strokeColor=#3A5431;fontColor=#3A5431;" edge="1" parent="1" target="B9y7Y_qLmK_6oBP0jbWP-88" source="B9y7Y_qLmK_6oBP0jbWP-82">
          <mxGeometry as="geometry">
            <mxPoint x="130" y="360" as="sourcePoint" />
            <Array as="points">
              <mxPoint x="130" y="363" />
              <mxPoint x="130" y="335" />
            </Array>
            <mxPoint x="15" y="-14" as="offset" />
          </mxGeometry>
        </mxCell>
        <mxCell id="B9y7Y_qLmK_6oBP0jbWP-104" style="edgeStyle=orthogonalEdgeStyle;rounded=0;orthogonalLoop=1;jettySize=auto;html=1;entryX=0;entryY=0.5;entryDx=0;entryDy=0;fontSize=8;fontColor=#6C8EBF;strokeColor=#6C8EBF;" edge="1" parent="1" target="B9y7Y_qLmK_6oBP0jbWP-85">
          <mxGeometry relative="1" as="geometry">
            <mxPoint x="130" y="363" as="sourcePoint" />
            <Array as="points">
              <mxPoint x="130" y="363" />
              <mxPoint x="130" y="391" />
            </Array>
          </mxGeometry>
        </mxCell>
        <mxCell id="B9y7Y_qLmK_6oBP0jbWP-82" value="家长2" style="shape=umlActor;verticalLabelPosition=bottom;verticalAlign=top;html=1;fillColor=#6d8764;strokeColor=#3A5431;fontColor=#ffffff;" vertex="1" parent="1">
          <mxGeometry x="70" y="343" width="30" height="60" as="geometry" />
        </mxCell>
        <mxCell id="B9y7Y_qLmK_6oBP0jbWP-107" style="edgeStyle=orthogonalEdgeStyle;rounded=0;orthogonalLoop=1;jettySize=auto;html=1;exitX=1;exitY=0.5;exitDx=0;exitDy=0;fontSize=8;fontColor=#B46504;strokeColor=#56517E;entryX=0;entryY=0.5;entryDx=0;entryDy=0;" edge="1" parent="1" source="B9y7Y_qLmK_6oBP0jbWP-85" target="B9y7Y_qLmK_6oBP0jbWP-105">
          <mxGeometry relative="1" as="geometry">
            <mxPoint x="420" y="430" as="targetPoint" />
            <Array as="points">
              <mxPoint x="380" y="391" />
              <mxPoint x="380" y="432" />
            </Array>
          </mxGeometry>
        </mxCell>
        <mxCell id="B9y7Y_qLmK_6oBP0jbWP-85" value="ID1" style="html=1;fillColor=#dae8fc;strokeColor=#6c8ebf;" vertex="1" parent="1">
          <mxGeometry x="210" y="376" width="80" height="30" as="geometry" />
        </mxCell>
        <mxCell id="B9y7Y_qLmK_6oBP0jbWP-88" value="ID3" style="html=1;fillColor=#d5e8d4;strokeColor=#82b366;" vertex="1" parent="1">
          <mxGeometry x="210" y="320" width="80" height="30" as="geometry" />
        </mxCell>
        <mxCell id="B9y7Y_qLmK_6oBP0jbWP-93" value="" style="edgeStyle=orthogonalEdgeStyle;rounded=0;orthogonalLoop=1;jettySize=auto;html=1;entryX=0;entryY=0.5;entryDx=0;entryDy=0;strokeColor=#56517E;" edge="1" parent="1" source="B9y7Y_qLmK_6oBP0jbWP-83">
          <mxGeometry x="70" y="290" as="geometry">
            <Array as="points">
              <mxPoint x="380" y="335" />
              <mxPoint x="380" y="335" />
            </Array>
            <mxPoint x="450" y="335" as="targetPoint" />
          </mxGeometry>
        </mxCell>
        <mxCell id="B9y7Y_qLmK_6oBP0jbWP-95" value="Device1" style="html=1;fillColor=#d0cee2;strokeColor=#56517e;fontColor=#330066;" vertex="1" parent="1">
          <mxGeometry x="450" y="379" width="80" height="24" as="geometry" />
        </mxCell>
        <mxCell id="B9y7Y_qLmK_6oBP0jbWP-96" style="edgeStyle=orthogonalEdgeStyle;rounded=0;orthogonalLoop=1;jettySize=auto;html=1;exitX=1;exitY=0.5;exitDx=0;exitDy=0;entryX=0;entryY=0.5;entryDx=0;entryDy=0;fontColor=#6C8EBF;strokeColor=#56517E;" edge="1" parent="1" source="B9y7Y_qLmK_6oBP0jbWP-85" target="B9y7Y_qLmK_6oBP0jbWP-95">
          <mxGeometry x="70" y="290" as="geometry" />
        </mxCell>
        <mxCell id="B9y7Y_qLmK_6oBP0jbWP-97" value="绑定" style="edgeLabel;html=1;align=center;verticalAlign=middle;resizable=0;points=[];fontColor=#6C8EBF;" vertex="1" connectable="0" parent="B9y7Y_qLmK_6oBP0jbWP-96">
          <mxGeometry x="0.3854" relative="1" as="geometry">
            <mxPoint x="-21" as="offset" />
          </mxGeometry>
        </mxCell>
        <mxCell id="B9y7Y_qLmK_6oBP0jbWP-108" style="edgeStyle=orthogonalEdgeStyle;rounded=0;orthogonalLoop=1;jettySize=auto;html=1;exitX=1;exitY=0.5;exitDx=0;exitDy=0;entryX=0;entryY=0.5;entryDx=0;entryDy=0;fontSize=8;fontColor=#B46504;strokeColor=#3A5431;" edge="1" parent="1" source="B9y7Y_qLmK_6oBP0jbWP-98">
          <mxGeometry relative="1" as="geometry">
            <mxPoint x="580" y="335" as="targetPoint" />
          </mxGeometry>
        </mxCell>
        <mxCell id="B9y7Y_qLmK_6oBP0jbWP-98" value="Device4" style="html=1;fillColor=#d5e8d4;strokeColor=#82b366;" vertex="1" parent="1">
          <mxGeometry x="450" y="323" width="80" height="24" as="geometry" />
        </mxCell>
        <mxCell id="B9y7Y_qLmK_6oBP0jbWP-99" style="edgeStyle=orthogonalEdgeStyle;rounded=0;orthogonalLoop=1;jettySize=auto;html=1;exitX=1;exitY=0.5;exitDx=0;exitDy=0;fontColor=#CC6600;strokeColor=#3A5431;" edge="1" parent="1" source="B9y7Y_qLmK_6oBP0jbWP-88" target="B9y7Y_qLmK_6oBP0jbWP-98">
          <mxGeometry x="70" y="290" as="geometry" />
        </mxCell>
        <mxCell id="B9y7Y_qLmK_6oBP0jbWP-100" value="绑定" style="edgeLabel;html=1;align=center;verticalAlign=middle;resizable=0;points=[];fontColor=#3A5431;" vertex="1" connectable="0" parent="B9y7Y_qLmK_6oBP0jbWP-99">
          <mxGeometry x="0.3333" relative="1" as="geometry">
            <mxPoint x="-17" as="offset" />
          </mxGeometry>
        </mxCell>
        <mxCell id="B9y7Y_qLmK_6oBP0jbWP-105" value="Device2" style="html=1;fillColor=#d0cee2;strokeColor=#56517e;fontColor=#330066;" vertex="1" parent="1">
          <mxGeometry x="450" y="420" width="80" height="24" as="geometry" />
        </mxCell>
        <mxCell id="B9y7Y_qLmK_6oBP0jbWP-113" value="家长列表" style="swimlane;rounded=0;glass=0;sketch=0;fontSize=8;fontColor=#ffffff;strokeColor=#3A5431;align=center;html=1;fillColor=#6d8764;" vertex="1" parent="1">
          <mxGeometry x="580" y="323" width="130" height="105" as="geometry">
            <mxRectangle x="580" y="323" width="80" height="23" as="alternateBounds" />
          </mxGeometry>
        </mxCell>
        <mxCell id="B9y7Y_qLmK_6oBP0jbWP-114" value="管理员：&lt;br&gt;家长2&lt;br&gt;普通成员：&lt;br&gt;家长1、家长2" style="text;html=1;align=left;verticalAlign=middle;resizable=0;points=[];autosize=1;strokeColor=none;fontSize=8;fontColor=#3A5431;" vertex="1" parent="B9y7Y_qLmK_6oBP0jbWP-113">
          <mxGeometry x="10" y="35" width="90" height="50" as="geometry" />
        </mxCell>
      </root>
    </mxGraphModel>
  </diagram>
</mxfile>
